<svg width="129" height="128" viewBox="0 0 129 128" fill="none" xmlns="http://www.w3.org/2000/svg">
<path fill-rule="evenodd" clip-rule="evenodd" d="M95.4061 23.9867L31.3988 31.9876C27.2784 32.3996 24.2 35.6493 24.2 39.4667V88.5333C24.2 92.3507 27.2783 95.6012 31.3987 96.0132L31.4642 96.0198L93.8162 103.815C94.3557 103.508 94.9902 103.397 95.6104 103.51C99.7958 104.271 104.2 100.782 104.2 96V31.4667C104.2 27.3042 100.359 23.6015 95.4061 23.9867ZM96.5159 108.947C103.364 109.108 109.533 103.357 109.533 96V31.4667C109.533 23.9102 102.734 18.024 94.9119 18.6759C94.8754 18.6789 94.8389 18.6827 94.8026 18.6873L30.8335 26.6834C24.3026 27.3531 18.8667 32.6294 18.8667 39.4667V88.5333C18.8667 95.3706 24.3026 100.647 30.8336 101.317L94.8026 109.313C95.4031 109.388 96.0062 109.256 96.5159 108.947Z" fill="#0F171C"/>
<path fill-rule="evenodd" clip-rule="evenodd" d="M64.2 24C65.6728 24 66.8667 25.1939 66.8667 26.6667V101.333C66.8667 102.806 65.6728 104 64.2 104C62.7273 104 61.5334 102.806 61.5334 101.333V26.6667C61.5334 25.1939 62.7273 24 64.2 24Z" fill="#0F171C"/>
<path fill-rule="evenodd" clip-rule="evenodd" d="M18.8667 64C18.8667 62.5272 20.0606 61.3333 21.5333 61.3333H106.867C108.339 61.3333 109.533 62.5272 109.533 64C109.533 65.4728 108.339 66.6667 106.867 66.6667H21.5333C20.0606 66.6667 18.8667 65.4728 18.8667 64Z" fill="#0F171C"/>
</svg>
