<svg width="129" height="128" viewBox="0 0 129 128" fill="none" xmlns="http://www.w3.org/2000/svg">
<path fill-rule="evenodd" clip-rule="evenodd" d="M32.6 29.3333C31.8927 29.3333 31.2145 29.6143 30.7144 30.1144C30.2143 30.6145 29.9333 31.2928 29.9333 32V96C29.9333 96.7072 30.2143 97.3855 30.7144 97.8856C31.2145 98.3857 31.8927 98.6667 32.6 98.6667H96.6C97.3072 98.6667 97.9855 98.3857 98.4856 97.8856C98.9857 97.3855 99.2667 96.7073 99.2667 96V32C99.2667 31.2928 98.9857 30.6145 98.4856 30.1144C97.9855 29.6143 97.3072 29.3333 96.6 29.3333H32.6ZM26.9431 26.3431C28.4434 24.8429 30.4783 24 32.6 24H96.6C98.7217 24 100.757 24.8429 102.257 26.3431C103.757 27.8434 104.6 29.8783 104.6 32V96C104.6 98.1217 103.757 100.157 102.257 101.657C100.757 103.157 98.7217 104 96.6 104H32.6C30.4783 104 28.4434 103.157 26.9431 101.657C25.4428 100.157 24.6 98.1217 24.6 96V32C24.6 29.8783 25.4428 27.8434 26.9431 26.3431Z" fill="#0F171C"/>
<path fill-rule="evenodd" clip-rule="evenodd" d="M45.9333 48C45.9333 46.5272 47.1272 45.3333 48.6 45.3333H80.6C82.0727 45.3333 83.2667 46.5272 83.2667 48V80C83.2667 81.4728 82.0727 82.6667 80.6 82.6667H48.6C47.1272 82.6667 45.9333 81.4728 45.9333 80V48ZM51.2667 50.6667V77.3333H77.9333V50.6667H51.2667Z" fill="#0F171C"/>
<path fill-rule="evenodd" clip-rule="evenodd" d="M13.9333 53.3333C13.9333 51.8606 15.1272 50.6667 16.6 50.6667H27.2667C28.7394 50.6667 29.9333 51.8606 29.9333 53.3333C29.9333 54.8061 28.7394 56 27.2667 56H16.6C15.1272 56 13.9333 54.8061 13.9333 53.3333Z" fill="#0F171C"/>
<path fill-rule="evenodd" clip-rule="evenodd" d="M13.9333 74.6667C13.9333 73.1939 15.1272 72 16.6 72H27.2667C28.7394 72 29.9333 73.1939 29.9333 74.6667C29.9333 76.1394 28.7394 77.3333 27.2667 77.3333H16.6C15.1272 77.3333 13.9333 76.1394 13.9333 74.6667Z" fill="#0F171C"/>
<path fill-rule="evenodd" clip-rule="evenodd" d="M53.9333 13.3333C55.4061 13.3333 56.6 14.5272 56.6 16V26.6667C56.6 28.1394 55.4061 29.3333 53.9333 29.3333C52.4606 29.3333 51.2667 28.1394 51.2667 26.6667V16C51.2667 14.5272 52.4606 13.3333 53.9333 13.3333Z" fill="#0F171C"/>
<path fill-rule="evenodd" clip-rule="evenodd" d="M75.2667 13.3333C76.7394 13.3333 77.9333 14.5272 77.9333 16V26.6667C77.9333 28.1394 76.7394 29.3333 75.2667 29.3333C73.7939 29.3333 72.6 28.1394 72.6 26.6667V16C72.6 14.5272 73.7939 13.3333 75.2667 13.3333Z" fill="#0F171C"/>
<path fill-rule="evenodd" clip-rule="evenodd" d="M99.2667 53.3333C99.2667 51.8606 100.461 50.6667 101.933 50.6667H112.6C114.073 50.6667 115.267 51.8606 115.267 53.3333C115.267 54.8061 114.073 56 112.6 56H101.933C100.461 56 99.2667 54.8061 99.2667 53.3333Z" fill="#0F171C"/>
<path fill-rule="evenodd" clip-rule="evenodd" d="M99.2667 74.6667C99.2667 73.1939 100.461 72 101.933 72H112.6C114.073 72 115.267 73.1939 115.267 74.6667C115.267 76.1394 114.073 77.3333 112.6 77.3333H101.933C100.461 77.3333 99.2667 76.1394 99.2667 74.6667Z" fill="#0F171C"/>
<path fill-rule="evenodd" clip-rule="evenodd" d="M75.2667 98.6667C76.7394 98.6667 77.9333 99.8606 77.9333 101.333V112C77.9333 113.473 76.7394 114.667 75.2667 114.667C73.7939 114.667 72.6 113.473 72.6 112V101.333C72.6 99.8606 73.7939 98.6667 75.2667 98.6667Z" fill="#0F171C"/>
<path fill-rule="evenodd" clip-rule="evenodd" d="M53.9333 98.6667C55.4061 98.6667 56.6 99.8606 56.6 101.333V112C56.6 113.473 55.4061 114.667 53.9333 114.667C52.4606 114.667 51.2667 113.473 51.2667 112V101.333C51.2667 99.8606 52.4606 98.6667 53.9333 98.6667Z" fill="#0F171C"/>
</svg>
