<svg width="128" height="128" viewBox="0 0 128 128" fill="none" xmlns="http://www.w3.org/2000/svg">
<path fill-rule="evenodd" clip-rule="evenodd" d="M32 29.3333C31.2927 29.3333 30.6145 29.6143 30.1144 30.1144C29.6143 30.6145 29.3333 31.2928 29.3333 32V96C29.3333 96.7072 29.6143 97.3855 30.1144 97.8856C30.6145 98.3857 31.2927 98.6667 32 98.6667H96C96.7072 98.6667 97.3855 98.3857 97.8856 97.8856C98.3857 97.3855 98.6667 96.7073 98.6667 96V32C98.6667 31.2928 98.3857 30.6145 97.8856 30.1144C97.3855 29.6143 96.7072 29.3333 96 29.3333H32ZM26.3431 26.3431C27.8434 24.8429 29.8783 24 32 24H96C98.1217 24 100.157 24.8429 101.657 26.3431C103.157 27.8434 104 29.8783 104 32V96C104 98.1217 103.157 100.157 101.657 101.657C100.157 103.157 98.1217 104 96 104H32C29.8783 104 27.8434 103.157 26.3431 101.657C24.8428 100.157 24 98.1217 24 96V32C24 29.8783 24.8428 27.8434 26.3431 26.3431Z" fill="#0F171C"/>
<path fill-rule="evenodd" clip-rule="evenodd" d="M40 42.6667C40 41.1939 41.1939 40 42.6667 40H53.3333C54.8061 40 56 41.1939 56 42.6667C56 44.1394 54.8061 45.3333 53.3333 45.3333H45.3333V53.3333C45.3333 54.8061 44.1394 56 42.6667 56C41.1939 56 40 54.8061 40 53.3333V42.6667ZM72 42.6667C72 41.1939 73.1939 40 74.6667 40H85.3333C86.8061 40 88 41.1939 88 42.6667V53.3333C88 54.8061 86.8061 56 85.3333 56C83.8606 56 82.6667 54.8061 82.6667 53.3333V45.3333H74.6667C73.1939 45.3333 72 44.1394 72 42.6667ZM42.6667 72C44.1394 72 45.3333 73.1939 45.3333 74.6667V82.6667H53.3333C54.8061 82.6667 56 83.8606 56 85.3333C56 86.8061 54.8061 88 53.3333 88H42.6667C41.1939 88 40 86.8061 40 85.3333V74.6667C40 73.1939 41.1939 72 42.6667 72ZM85.3333 72C86.8061 72 88 73.1939 88 74.6667V85.3333C88 86.8061 86.8061 88 85.3333 88H74.6667C73.1939 88 72 86.8061 72 85.3333C72 83.8606 73.1939 82.6667 74.6667 82.6667H82.6667V74.6667C82.6667 73.1939 83.8606 72 85.3333 72Z" fill="#0F171C"/>
<path fill-rule="evenodd" clip-rule="evenodd" d="M13.3333 53.3333C13.3333 51.8606 14.5272 50.6667 16 50.6667H26.6666C28.1394 50.6667 29.3333 51.8606 29.3333 53.3333C29.3333 54.8061 28.1394 56 26.6666 56H16C14.5272 56 13.3333 54.8061 13.3333 53.3333Z" fill="#0F171C"/>
<path fill-rule="evenodd" clip-rule="evenodd" d="M13.3333 74.6667C13.3333 73.1939 14.5272 72 16 72H26.6666C28.1394 72 29.3333 73.1939 29.3333 74.6667C29.3333 76.1394 28.1394 77.3333 26.6666 77.3333H16C14.5272 77.3333 13.3333 76.1394 13.3333 74.6667Z" fill="#0F171C"/>
<path fill-rule="evenodd" clip-rule="evenodd" d="M53.3333 13.3333C54.8061 13.3333 56 14.5272 56 16V26.6667C56 28.1394 54.8061 29.3333 53.3333 29.3333C51.8606 29.3333 50.6667 28.1394 50.6667 26.6667V16C50.6667 14.5272 51.8606 13.3333 53.3333 13.3333Z" fill="#0F171C"/>
<path fill-rule="evenodd" clip-rule="evenodd" d="M74.6667 13.3333C76.1394 13.3333 77.3333 14.5272 77.3333 16V26.6667C77.3333 28.1394 76.1394 29.3333 74.6667 29.3333C73.1939 29.3333 72 28.1394 72 26.6667V16C72 14.5272 73.1939 13.3333 74.6667 13.3333Z" fill="#0F171C"/>
<path fill-rule="evenodd" clip-rule="evenodd" d="M98.6667 53.3333C98.6667 51.8606 99.8606 50.6667 101.333 50.6667H112C113.473 50.6667 114.667 51.8606 114.667 53.3333C114.667 54.8061 113.473 56 112 56H101.333C99.8606 56 98.6667 54.8061 98.6667 53.3333Z" fill="#0F171C"/>
<path fill-rule="evenodd" clip-rule="evenodd" d="M98.6667 74.6667C98.6667 73.1939 99.8606 72 101.333 72H112C113.473 72 114.667 73.1939 114.667 74.6667C114.667 76.1394 113.473 77.3333 112 77.3333H101.333C99.8606 77.3333 98.6667 76.1394 98.6667 74.6667Z" fill="#0F171C"/>
<path fill-rule="evenodd" clip-rule="evenodd" d="M74.6667 98.6667C76.1394 98.6667 77.3333 99.8606 77.3333 101.333V112C77.3333 113.473 76.1394 114.667 74.6667 114.667C73.1939 114.667 72 113.473 72 112V101.333C72 99.8606 73.1939 98.6667 74.6667 98.6667Z" fill="#0F171C"/>
<path fill-rule="evenodd" clip-rule="evenodd" d="M53.3333 98.6667C54.8061 98.6667 56 99.8606 56 101.333V112C56 113.473 54.8061 114.667 53.3333 114.667C51.8606 114.667 50.6667 113.473 50.6667 112V101.333C50.6667 99.8606 51.8606 98.6667 53.3333 98.6667Z" fill="#0F171C"/>
</svg>
