<svg width="129" height="128" viewBox="0 0 129 128" fill="none" xmlns="http://www.w3.org/2000/svg">
<path fill-rule="evenodd" clip-rule="evenodd" d="M72.5155 29.557C68.9741 28.9131 65.3247 28.9033 61.7789 29.5281C58.2331 30.153 54.8708 31.3984 51.8828 33.1837C45.8468 36.7901 41.734 42.3523 40.3352 48.5841C40.0619 49.8015 38.981 50.6667 37.7333 50.6667C31.7487 50.6667 26.0318 52.9418 21.8346 56.9565C17.6414 60.9673 15.309 66.3813 15.309 72C15.309 77.6187 17.6414 83.0327 21.8346 87.0435C26.0318 91.0582 31.7487 93.3333 37.7333 93.3333C39.206 93.3333 40.4 94.5273 40.4 96C40.4 97.4728 39.206 98.6667 37.7333 98.6667C30.4088 98.6667 23.3618 95.8847 18.1481 90.8976C12.9303 85.9067 9.97571 79.1117 9.97571 72C9.97571 64.8884 12.9303 58.0933 18.1481 53.1024C22.8685 48.5872 29.0917 45.8795 35.663 45.4076C37.7781 38.4869 42.5853 32.526 49.1473 28.6053C52.7076 26.4781 56.6857 25.0102 60.8533 24.2757C65.0209 23.5413 69.3067 23.5528 73.4696 24.3097C77.6324 25.0666 81.6011 26.556 85.1476 28.7026C88.6945 30.8493 91.7557 33.6152 94.1447 36.854C96.5343 40.0936 98.203 43.7412 99.0406 47.5909C99.6439 50.364 99.8058 53.1959 99.5268 56H101.733C107.391 56 112.817 58.2476 116.818 62.2484C120.819 66.2492 123.067 71.6754 123.067 77.3333C123.067 82.9913 120.819 88.4175 116.818 92.4183C112.817 96.4191 107.391 98.6667 101.733 98.6667H96.4C94.9272 98.6667 93.7333 97.4728 93.7333 96C93.7333 94.5273 94.9272 93.3333 96.4 93.3333H101.733C105.977 93.3333 110.046 91.6476 113.047 88.647C116.048 85.6465 117.733 81.5768 117.733 77.3333C117.733 73.0899 116.048 69.0202 113.047 66.0196C110.046 63.0191 105.977 61.3333 101.733 61.3333H96.4C95.5901 61.3333 94.8241 60.9653 94.3181 60.3331C93.812 59.7008 93.6207 58.8728 93.798 58.0826C94.4912 54.9944 94.5017 51.8163 93.8291 48.7248C93.1564 45.6325 91.8102 42.6737 89.8527 40.0199C87.8945 37.3653 85.3613 35.066 82.386 33.2652C79.4104 31.4642 76.0569 30.2009 72.5155 29.557Z" fill="#0F171C"/>
<path fill-rule="evenodd" clip-rule="evenodd" d="M62.5144 62.1144C63.5558 61.073 65.2442 61.073 66.2856 62.1144L82.2856 78.1144C83.327 79.1558 83.327 80.8442 82.2856 81.8856C81.2442 82.927 79.5558 82.927 78.5144 81.8856L64.4 67.7712L50.2856 81.8856C49.2442 82.927 47.5558 82.927 46.5144 81.8856C45.473 80.8442 45.473 79.1558 46.5144 78.1144L62.5144 62.1144Z" fill="#0F171C"/>
<path fill-rule="evenodd" clip-rule="evenodd" d="M64.3999 61.3333C65.8727 61.3333 67.0666 62.5272 67.0666 64V112C67.0666 113.473 65.8727 114.667 64.3999 114.667C62.9272 114.667 61.7333 113.473 61.7333 112V64C61.7333 62.5272 62.9272 61.3333 64.3999 61.3333Z" fill="#0F171C"/>
</svg>
