<svg width="129" height="128" viewBox="0 0 129 128" fill="none" xmlns="http://www.w3.org/2000/svg">
<path fill-rule="evenodd" clip-rule="evenodd" d="M32.8 24C30.6783 24 28.6434 24.8429 27.1432 26.3432C25.6429 27.8434 24.8 29.8783 24.8 32V42.6667C24.8 44.1394 23.6061 45.3333 22.1333 45.3333C20.6606 45.3333 19.4667 44.1394 19.4667 42.6667V32C19.4667 28.4638 20.8714 25.0724 23.3719 22.5719C25.8724 20.0714 29.2638 18.6667 32.8 18.6667H43.4667C44.9394 18.6667 46.1333 19.8606 46.1333 21.3333C46.1333 22.8061 44.9394 24 43.4667 24H32.8Z" fill="#0F171C"/>
<path fill-rule="evenodd" clip-rule="evenodd" d="M22.1333 82.6667C23.6061 82.6667 24.8 83.8606 24.8 85.3333V96C24.8 98.1217 25.6429 100.157 27.1432 101.657C28.6434 103.157 30.6783 104 32.8 104H43.4667C44.9394 104 46.1333 105.194 46.1333 106.667C46.1333 108.139 44.9394 109.333 43.4667 109.333H32.8C29.2638 109.333 25.8724 107.929 23.3719 105.428C20.8714 102.928 19.4667 99.5362 19.4667 96V85.3333C19.4667 83.8606 20.6606 82.6667 22.1333 82.6667Z" fill="#0F171C"/>
<path fill-rule="evenodd" clip-rule="evenodd" d="M83.4667 21.3333C83.4667 19.8606 84.6606 18.6667 86.1333 18.6667H96.8C100.336 18.6667 103.728 20.0714 106.228 22.5719C108.729 25.0724 110.133 28.4638 110.133 32V42.6667C110.133 44.1394 108.939 45.3333 107.467 45.3333C105.994 45.3333 104.8 44.1394 104.8 42.6667V32C104.8 29.8783 103.957 27.8434 102.457 26.3432C100.957 24.8429 98.9217 24 96.8 24H86.1333C84.6606 24 83.4667 22.8061 83.4667 21.3333Z" fill="#0F171C"/>
<path fill-rule="evenodd" clip-rule="evenodd" d="M107.467 82.6667C108.939 82.6667 110.133 83.8606 110.133 85.3333V96C110.133 99.5362 108.729 102.928 106.228 105.428C103.728 107.929 100.336 109.333 96.8 109.333H86.1333C84.6606 109.333 83.4667 108.139 83.4667 106.667C83.4667 105.194 84.6606 104 86.1333 104H96.8C98.9217 104 100.957 103.157 102.457 101.657C103.957 100.157 104.8 98.1217 104.8 96V85.3333C104.8 83.8606 105.994 82.6667 107.467 82.6667Z" fill="#0F171C"/>
<path fill-rule="evenodd" clip-rule="evenodd" d="M48.8 61.3333C48.0927 61.3333 47.4145 61.6143 46.9144 62.1144C46.4143 62.6145 46.1333 63.2928 46.1333 64V80C46.1333 80.7072 46.4143 81.3855 46.9144 81.8856C47.4145 82.3857 48.0927 82.6667 48.8 82.6667H80.8C81.5072 82.6667 82.1855 82.3857 82.6856 81.8856C83.1857 81.3855 83.4667 80.7072 83.4667 80V64C83.4667 63.2928 83.1857 62.6145 82.6856 62.1144C82.1855 61.6143 81.5072 61.3333 80.8 61.3333H48.8ZM43.1431 58.3431C44.6434 56.8429 46.6783 56 48.8 56H80.8C82.9217 56 84.9566 56.8429 86.4568 58.3431C87.9571 59.8434 88.8 61.8783 88.8 64V80C88.8 82.1217 87.9571 84.1566 86.4568 85.6569C84.9566 87.1571 82.9217 88 80.8 88H48.8C46.6783 88 44.6434 87.1571 43.1431 85.6569C41.6428 84.1566 40.8 82.1217 40.8 80V64C40.8 61.8783 41.6428 59.8434 43.1431 58.3431Z" fill="#0F171C"/>
<path fill-rule="evenodd" clip-rule="evenodd" d="M64.8 40C62.6783 40 60.6434 40.8429 59.1432 42.3432C57.6429 43.8434 56.8 45.8783 56.8 48V58.6667C56.8 60.1394 55.6061 61.3333 54.1333 61.3333C52.6606 61.3333 51.4667 60.1394 51.4667 58.6667V48C51.4667 44.4638 52.8714 41.0724 55.3719 38.5719C57.8724 36.0714 61.2638 34.6667 64.8 34.6667C68.3362 34.6667 71.7276 36.0714 74.2281 38.5719C76.7286 41.0724 78.1333 44.4638 78.1333 48V58.6667C78.1333 60.1394 76.9394 61.3333 75.4667 61.3333C73.9939 61.3333 72.8 60.1394 72.8 58.6667V48C72.8 45.8783 71.9572 43.8434 70.4569 42.3432C68.9566 40.8429 66.9217 40 64.8 40Z" fill="#0F171C"/>
</svg>
