<svg width="256" height="256" viewBox="0 0 256 256" fill="none" xmlns="http://www.w3.org/2000/svg">
<path fill-rule="evenodd" clip-rule="evenodd" d="M256 128C256 57.3091 198.691 0 128 0C57.3091 0 0 57.3091 0 128C0 198.691 57.3091 256 128 256C198.691 256 256 198.691 256 128Z" fill="#FFCF01"/>
<circle cx="128.5" cy="128.5" r="70.5" fill="white"/>
<path fill-rule="evenodd" clip-rule="evenodd" d="M98.9161 57.7852C108.137 53.9658 118.02 52 128 52C137.98 52 147.863 53.9658 157.084 57.7852C166.305 61.6045 174.683 67.2026 181.74 74.2599C188.797 81.3171 194.395 89.6953 198.215 98.9161C202.034 108.137 204 118.02 204 128C204 137.98 202.034 147.863 198.215 157.084C194.395 166.305 188.797 174.683 181.74 181.74C174.683 188.797 166.305 194.395 157.084 198.215C147.863 202.034 137.98 204 128 204C118.02 204 108.137 202.034 98.9161 198.215C89.6953 194.395 81.3171 188.797 74.2599 181.74C67.2026 174.683 61.6045 166.305 57.7852 157.084C53.9658 147.863 52 137.98 52 128C52 118.02 53.9658 108.137 57.7852 98.9161C61.6045 89.6953 67.2026 81.3171 74.2599 74.2599C81.3171 67.2026 89.6953 61.6045 98.9161 57.7852ZM128 60C119.07 60 110.228 61.7589 101.978 65.1762C93.7274 68.5935 86.2311 73.6024 79.9167 79.9167C73.6024 86.2311 68.5935 93.7274 65.1762 101.978C61.7589 110.228 60 119.07 60 128C60 136.93 61.7589 145.772 65.1762 154.022C68.5935 162.273 73.6024 169.769 79.9167 176.083C86.2311 182.398 93.7274 187.406 101.978 190.824C110.228 194.241 119.07 196 128 196C136.93 196 145.772 194.241 154.022 190.824C162.273 187.406 169.769 182.398 176.083 176.083C182.398 169.769 187.406 162.273 190.824 154.022C194.241 145.772 196 136.93 196 128C196 119.07 194.241 110.228 190.824 101.978C187.406 93.7274 182.398 86.2311 176.083 79.9167C169.769 73.6024 162.273 68.5935 154.022 65.1762C145.772 61.7589 136.93 60 128 60Z" fill="#0F171C"/>
<path fill-rule="evenodd" clip-rule="evenodd" d="M108.201 92.201C113.452 86.95 120.574 84 128 84C135.426 84 142.548 86.95 147.799 92.201C153.05 97.452 156 104.574 156 112C156 119.426 153.05 126.548 147.799 131.799C142.548 137.05 135.426 140 128 140C120.574 140 113.452 137.05 108.201 131.799C102.95 126.548 100 119.426 100 112C100 104.574 102.95 97.452 108.201 92.201ZM128 92C122.696 92 117.609 94.1071 113.858 97.8579C110.107 101.609 108 106.696 108 112C108 117.304 110.107 122.391 113.858 126.142C117.609 129.893 122.696 132 128 132C133.304 132 138.391 129.893 142.142 126.142C145.893 122.391 148 117.304 148 112C148 106.696 145.893 101.609 142.142 97.8579C138.391 94.1071 133.304 92 128 92Z" fill="#0F171C"/>
<path fill-rule="evenodd" clip-rule="evenodd" d="M160.734 169.542C155.899 165.942 150.03 163.998 144.001 164L112 164C105.979 163.998 100.117 165.937 95.2846 169.53C90.4526 173.122 86.9074 178.177 85.1748 183.943C84.5392 186.059 82.3087 187.259 80.193 186.623C78.0773 185.987 76.8775 183.757 77.5132 181.641C79.7408 174.227 84.2989 167.729 90.5114 163.11C96.7236 158.491 104.259 155.998 112 156L143.999 156C143.998 156 143.999 156 143.999 156C151.749 155.998 159.295 158.497 165.512 163.126C171.729 167.756 176.286 174.268 178.505 181.695C179.137 183.812 177.934 186.04 175.817 186.673C173.7 187.305 171.472 186.102 170.839 183.985C169.114 178.208 165.57 173.143 160.734 169.542Z" fill="#0F171C"/>
</svg>
