<svg width="368" height="256" viewBox="0 0 368 256" fill="none" xmlns="http://www.w3.org/2000/svg">
<path fill-rule="evenodd" clip-rule="evenodd" d="M310 128C310 57.3091 252.691 0 182 0C111.309 0 54 57.3091 54 128C54 198.691 111.309 256 182 256C252.691 256 310 198.691 310 128Z" fill="#FFCF01"/>
<rect x="29" y="66" width="138" height="92" fill="white"/>
<rect x="76" y="162" width="44" height="28" fill="white"/>
<rect x="201" y="67" width="138" height="59" rx="16" fill="white"/>
<rect x="201" y="129" width="138" height="61" rx="16" fill="white"/>
<path fill-rule="evenodd" clip-rule="evenodd" d="M222 68C216.696 68 211.609 70.1071 207.858 73.8579C204.107 77.6086 202 82.6957 202 88V104C202 109.304 204.107 114.391 207.858 118.142C211.609 121.893 216.696 124 222 124H318C323.304 124 328.391 121.893 332.142 118.142C335.893 114.391 338 109.304 338 104V88C338 82.6957 335.893 77.6086 332.142 73.8579C328.391 70.1071 323.304 68 318 68H222ZM202.201 68.201C207.452 62.95 214.574 60 222 60H318C325.426 60 332.548 62.95 337.799 68.201C343.05 73.452 346 80.5739 346 88V104C346 111.426 343.05 118.548 337.799 123.799C332.548 129.05 325.426 132 318 132H222C214.574 132 207.452 129.05 202.201 123.799C196.95 118.548 194 111.426 194 104V88C194 80.5739 196.95 73.452 202.201 68.201Z" fill="#0F171C"/>
<path fill-rule="evenodd" clip-rule="evenodd" d="M222 132C216.696 132 211.609 134.107 207.858 137.858C204.107 141.609 202 146.696 202 152V168C202 173.304 204.107 178.391 207.858 182.142C211.609 185.893 216.696 188 222 188H318C323.304 188 328.391 185.893 332.142 182.142C335.893 178.391 338 173.304 338 168V152C338 146.696 335.893 141.609 332.142 137.858C328.391 134.107 323.304 132 318 132H222ZM202.201 132.201C207.452 126.95 214.574 124 222 124H318C325.426 124 332.548 126.95 337.799 132.201C343.05 137.452 346 144.574 346 152V168C346 175.426 343.05 182.548 337.799 187.799C332.548 193.05 325.426 196 318 196H222C214.574 196 207.452 193.05 202.201 187.799C196.95 182.548 194 175.426 194 168V152C194 144.574 196.95 137.452 202.201 132.201Z" fill="#0F171C"/>
<path fill-rule="evenodd" clip-rule="evenodd" d="M230 92C232.209 92 234 93.7909 234 96V96.08C234 98.2891 232.209 100.08 230 100.08C227.791 100.08 226 98.2891 226 96.08V96C226 93.7909 227.791 92 230 92Z" fill="#0F171C"/>
<path fill-rule="evenodd" clip-rule="evenodd" d="M230 156C232.209 156 234 157.791 234 160V160.08C234 162.289 232.209 164.08 230 164.08C227.791 164.08 226 162.289 226 160.08V160C226 157.791 227.791 156 230 156Z" fill="#0F171C"/>
<path fill-rule="evenodd" clip-rule="evenodd" d="M258 96C258 93.7909 259.791 92 262 92H310C312.209 92 314 93.7909 314 96C314 98.2091 312.209 100 310 100H262C259.791 100 258 98.2091 258 96Z" fill="#0F171C"/>
<path fill-rule="evenodd" clip-rule="evenodd" d="M258 160C258 157.791 259.791 156 262 156H310C312.209 156 314 157.791 314 160C314 162.209 312.209 164 310 164H262C259.791 164 258 162.209 258 160Z" fill="#0F171C"/>
<path fill-rule="evenodd" clip-rule="evenodd" d="M34 68C32.9391 68 31.9217 68.4214 31.1716 69.1716C30.4214 69.9217 30 70.9391 30 72V152C30 153.061 30.4214 154.078 31.1716 154.828C31.9217 155.579 32.9391 156 34 156H162C163.061 156 164.078 155.579 164.828 154.828C165.579 154.078 166 153.061 166 152V72C166 70.9391 165.579 69.9217 164.828 69.1716C164.078 68.4214 163.061 68 162 68H34ZM25.5147 63.5147C27.7652 61.2643 30.8174 60 34 60H162C165.183 60 168.235 61.2643 170.485 63.5147C172.736 65.7652 174 68.8174 174 72V152C174 155.183 172.736 158.235 170.485 160.485C168.235 162.736 165.183 164 162 164H34C30.8174 164 27.7652 162.736 25.5147 160.485C23.2643 158.235 22 155.183 22 152V72C22 68.8174 23.2643 65.7652 25.5147 63.5147Z" fill="#0F171C"/>
<path fill-rule="evenodd" clip-rule="evenodd" d="M54 192C54 189.791 55.7909 188 58 188H138C140.209 188 142 189.791 142 192C142 194.209 140.209 196 138 196H58C55.7909 196 54 194.209 54 192Z" fill="#0F171C"/>
<path fill-rule="evenodd" clip-rule="evenodd" d="M74 156C76.2091 156 78 157.791 78 160V192C78 194.209 76.2091 196 74 196C71.7909 196 70 194.209 70 192V160C70 157.791 71.7909 156 74 156Z" fill="#0F171C"/>
<path fill-rule="evenodd" clip-rule="evenodd" d="M122 156C124.209 156 126 157.791 126 160V192C126 194.209 124.209 196 122 196C119.791 196 118 194.209 118 192V160C118 157.791 119.791 156 122 156Z" fill="#0F171C"/>
<path fill-rule="evenodd" clip-rule="evenodd" d="M74 92C76.2091 92 78 93.7909 78 96V128C78 130.209 76.2091 132 74 132C71.7909 132 70 130.209 70 128V96C70 93.7909 71.7909 92 74 92Z" fill="#0F171C"/>
<path fill-rule="evenodd" clip-rule="evenodd" d="M98 116C100.209 116 102 117.791 102 120V128C102 130.209 100.209 132 98 132C95.7909 132 94 130.209 94 128V120C94 117.791 95.7909 116 98 116Z" fill="#0F171C"/>
<path fill-rule="evenodd" clip-rule="evenodd" d="M122 108C124.209 108 126 109.791 126 112V128C126 130.209 124.209 132 122 132C119.791 132 118 130.209 118 128V112C118 109.791 119.791 108 122 108Z" fill="#0F171C"/>
<path fill-rule="evenodd" clip-rule="evenodd" d="M98 116C100.209 116 102 117.791 102 120V128C102 130.209 100.209 132 98 132C95.7909 132 94 130.209 94 128V120C94 117.791 95.7909 116 98 116Z" fill="#0F171C"/>
</svg>
