<svg xmlns="http://www.w3.org/2000/svg" width="40" height="40" viewBox="0 0 40 40" fill="none">
<g clip-path="url(#clip0_2353_11840)">
<path d="M16 8.04348V15.6522L28.8 6.95652M40 6.95652L27.2 15.6522V8.04348M32.8 31.3043H37.6C38.04 31.3043 38.4 30.913 38.4 30.4348V8.04348M17.6 6.95652L4.8 15.6522V0H0V30.4348C0 30.913 0.36 31.3043 0.8 31.3043H8.8M11.2 19.1304V22.6087H8M33.6 19.1304V22.6087H30.4M23.2 40L20.8 38.2609M20.8 38.2609L23.2 36.5217M20.8 38.2609L28 38.2609C28.92 38.2609 29.664 37.7217 30.072 36.9652C30.48 36.2087 30.544 35.2348 30.088 34.3652L28 30.4261M12.536 28.9565L15.12 27.5739M15.12 27.5739L15.312 30.6957M15.12 27.5739L11.52 34.3478C11.064 35.2087 11.112 36.1826 11.52 36.9391C11.928 37.6957 12.664 38.2435 13.576 38.2522H17.76M26.824 24.0783L26.632 27.2087M26.632 27.2087L24.048 25.8174M26.632 27.2087L23.032 20.4348C22.576 19.5739 21.768 19.1391 20.968 19.1304C20.16 19.1304 19.36 19.5478 18.888 20.4087L16.792 24.3478" stroke="url(#paint0_linear_2353_11840)" stroke-width="1.5" stroke-linecap="round" stroke-linejoin="round"/>
</g>
<defs>
<linearGradient id="paint0_linear_2353_11840" x1="20" y1="0" x2="20" y2="40" gradientUnits="userSpaceOnUse">
<stop stop-color="#00B8A5"/>
<stop offset="0.557292" stop-color="#2AB673"/>
<stop offset="1" stop-color="#9ACA3C"/>
</linearGradient>
<clipPath id="clip0_2353_11840">
<rect width="40" height="40" fill="white"/>
</clipPath>
</defs>
</svg>
