<svg xmlns="http://www.w3.org/2000/svg" width="43" height="42" viewBox="0 0 43 42" fill="none">
<path d="M36.2556 29.5185L38.8185 31M4.18148 11L6.74445 12.4815M30.0185 35.7556L31.5 38.3185M11.5 3.68148L12.9815 6.24444M21.5 38.037V41M21.5 1V3.96296M12.9815 35.7556L11.5 38.3185M31.5 3.68148L30.0185 6.24444M6.74445 29.5185L4.18148 31M38.8185 11L36.2556 12.4815M4.46296 21H1.5M41.5 21H38.537M22.337 6.94815C22.063 6.93333 21.7815 6.92593 21.5 6.92593C13.7296 6.92593 7.42593 13.2296 7.42593 21M24.6333 7.27408C30.3963 8.58519 34.8185 13.437 35.4852 19.4222M20.663 35.0519C20.937 35.0667 21.2185 35.0741 21.5 35.0741C29.2704 35.0741 35.5741 28.7704 35.5741 21M18.3667 34.7259C12.6037 33.4148 8.18148 28.563 7.51482 22.5778M14.8333 21.7407H19.2778L17.7963 30.6296L28.1667 20.2593H23.7222L25.2037 11.3704L14.8333 21.7407Z" stroke="url(#paint0_linear_2331_123)" stroke-width="1.5" stroke-linecap="round" stroke-linejoin="round"/>
<defs>
<linearGradient id="paint0_linear_2331_123" x1="21.5" y1="1" x2="21.5" y2="41" gradientUnits="userSpaceOnUse">
<stop stop-color="#00B8A5"/>
<stop offset="0.557292" stop-color="#2AB673"/>
<stop offset="1" stop-color="#9ACA3C"/>
</linearGradient>
</defs>
</svg>
