<svg xmlns="http://www.w3.org/2000/svg" width="60" height="60" viewBox="0 0 60 60" fill="none">
<path d="M35.0027 42C35.4827 41.19 36.9427 38.71 36.0027 37C35.9127 36.83 35.8027 36.69 35.6927 36.58C34.5227 35.5 33.2227 35.31 32.0027 35C28.9027 34.2 29.0527 32.46 26.0027 32C24.3627 31.75 24.4427 32.3 23.0027 32C20.3527 31.45 17.9927 30.15 17.7227 27.77C17.6127 26.75 17.9327 26.14 18.0027 26C18.4827 25.03 19.5627 24.42 20.6327 24.54C22.0427 24.69 22.6727 26.09 23.4227 27.11C23.7927 27.09 24.0327 26.66 24.0027 26.29C23.9827 25.92 23.7827 25.58 23.6627 25.22C23.6627 25.22 23.5727 24.73 23.7627 24.16C24.1227 23.08 25.4727 23.25 26.3127 22.27C27.1827 21.26 26.3527 20.37 26.9927 18.99C27.9527 16.92 30.5327 17.46 30.9927 15.99C31.6227 13.97 27.6027 10.27 24.9627 10.61C24.5527 10.66 24.2627 10.78 24.1927 10.84C23.3327 11.62 24.6027 14.13 22.7227 15.07C20.4927 15.07 19.3727 11.72 17.1427 11.72C17.5327 10.85 17.9227 9.99 18.3127 9.12C13.9927 11.12 10.4127 14.42 8.04272 18.52C8.52272 20.88 9.30272 22.72 9.97272 23.99C10.9027 25.75 13.1427 30.02 17.9727 31.99C19.9327 32.79 21.7227 32.97 22.9727 32.99C22.0427 35.62 22.0427 37.62 22.9727 38.99C23.6627 40.01 24.2927 39.94 24.9727 40.99C25.8627 42.35 25.0627 43.39 24.9727 46.99C24.8827 50.71 25.6227 51.63 25.9727 51.99C26.6027 52.63 27.4027 52.88 27.9727 52.99C27.9427 49.38 28.9927 48.26 29.9727 46.99C31.6327 44.83 33.3327 44.76 34.9727 41.99L35.0027 42Z" stroke="white" stroke-width="2" stroke-linejoin="round"/>
<path d="M36.0027 13.94C40.5427 11.87 48.7427 13.18 52.8127 18.26C55.8627 22.07 55.7127 27.41 52.4027 30.27C49.0927 33.13 43.8927 32.37 40.8027 28.6C37.7127 24.83 39.5527 18.74 35.9927 13.94H36.0027Z" stroke="white" stroke-width="2" stroke-linejoin="round"/>
<path d="M37.7327 9.17001C34.7727 7.79001 31.4827 7 28.0027 7C15.3027 7 5.00269 17.3 5.00269 30C5.00269 42.7 15.3027 53 28.0027 53C40.7027 53 51.0027 42.7 51.0027 30C51.0027 23 46.0027 20 46.0027 20" stroke="white" stroke-width="2" stroke-linecap="round" stroke-linejoin="round"/>
</svg>
