<svg xmlns="http://www.w3.org/2000/svg" width="80" height="80" viewBox="0 0 80 80" fill="none">
<path d="M78.7772 76.7836H1.21765C0.545508 76.7836 0 76.2381 0 75.566C0 74.8938 0.545508 74.3483 1.21765 74.3483H78.7772C79.4494 74.3483 79.9949 74.8938 79.9949 75.566C79.9949 76.2381 79.4494 76.7836 78.7772 76.7836Z" fill="white"/>
<path d="M67.1803 72.8254C67.0861 72.8254 66.9904 72.8141 66.8962 72.7913C64.4869 72.2133 62.8033 70.0784 62.8033 67.5976C62.8033 66.1316 63.3877 64.7711 64.4073 63.7791C64.1362 63.167 63.9917 62.5014 63.9917 61.826C63.9917 60.0839 64.948 58.5042 66.3994 57.66C66.3133 57.3288 66.2679 56.9846 66.2679 56.6339C66.2679 54.408 68.0781 52.5978 70.304 52.5978C71.9925 52.5978 73.465 53.6466 74.0592 55.1565C76.2656 55.5948 77.9346 57.5447 77.9346 59.8777C77.9346 60.4768 77.8258 61.058 77.6164 61.6035C79.1328 62.6848 79.9332 64.4139 79.9981 66.7615C80.0712 69.4144 77.9979 72.1776 75.5626 72.6761C74.9035 72.8108 74.2606 72.3854 74.1258 71.7279C73.991 71.0688 74.4164 70.4258 75.0739 70.2911C76.3224 70.0362 77.6034 68.2552 77.5628 66.8281C77.4946 64.3668 76.4799 63.6119 75.4944 63.1979C75.1454 63.0517 74.884 62.7514 74.7882 62.3861C74.6924 62.0208 74.7703 61.6311 75.0025 61.3308C75.3272 60.9119 75.4977 60.4086 75.4977 59.8777C75.4977 58.5675 74.4326 57.5025 73.1241 57.4992H73.0965C72.4812 57.4992 71.9632 57.0414 71.8886 56.4326C71.7895 55.6338 71.1076 55.0331 70.3024 55.0331C69.4208 55.0331 68.7016 55.7507 68.7016 56.6339C68.7016 56.9797 68.8103 57.3093 69.0165 57.5869C69.2633 57.9197 69.325 58.3532 69.1789 58.7412C69.0328 59.1293 68.7016 59.415 68.2973 59.5027C67.2128 59.7381 66.4254 60.7155 66.4254 61.826C66.4254 62.3731 66.6056 62.8861 66.9481 63.3131C67.1673 63.5859 67.2582 63.9398 67.1982 64.2856C67.1381 64.6298 66.9319 64.9334 66.6332 65.1152C65.7597 65.6478 65.2369 66.5764 65.2369 67.5976C65.2369 68.9468 66.151 70.1092 67.4612 70.4226C68.1155 70.5801 68.5181 71.236 68.3622 71.8903C68.2275 72.4488 67.7291 72.8238 67.1787 72.8238L67.1803 72.8254Z" fill="white"/>
<path d="M4.6628 72.8254C4.56863 72.8254 4.47284 72.8141 4.37868 72.7913C1.96935 72.2133 0.285742 70.0784 0.285742 67.5976C0.285742 66.1316 0.870215 64.7711 1.88817 63.7791C1.61704 63.167 1.47255 62.5014 1.47255 61.826C1.47255 60.0839 2.42881 58.5042 3.88025 57.66C3.7942 57.3288 3.74875 56.9846 3.74875 56.6339C3.74875 54.408 5.55899 52.5978 7.78486 52.5978C9.72498 52.5978 11.3826 53.9827 11.7463 55.8611C11.795 55.9926 11.821 56.1339 11.821 56.2816C11.821 56.9472 11.2852 57.4895 10.6212 57.4992C10.6082 57.4992 10.5903 57.4992 10.5806 57.4992C9.96527 57.4992 9.44736 57.0414 9.37267 56.431C9.27364 55.6322 8.59175 55.0315 7.78486 55.0315C6.90328 55.0315 6.18405 55.7491 6.18405 56.6323C6.18405 56.9781 6.29283 57.3077 6.49902 57.5853C6.74579 57.9181 6.80749 58.3516 6.66137 58.7396C6.51525 59.1276 6.18405 59.4134 5.77979 59.5011C4.69527 59.7365 3.90785 60.7138 3.90785 61.8243C3.90785 62.3715 4.08806 62.8861 4.43063 63.3115C4.64981 63.5843 4.74073 63.9382 4.68066 64.284C4.62058 64.6282 4.4144 64.9318 4.11566 65.1136C3.2422 65.6461 2.72105 66.5748 2.72105 67.596C2.72105 68.9452 3.6351 70.1076 4.94529 70.421C5.59958 70.5785 6.00221 71.2344 5.84635 71.8886C5.7116 72.4471 5.21318 72.8222 4.6628 72.8222V72.8254Z" fill="white"/>
<path d="M27.0481 76.519C26.376 76.519 25.8305 75.9735 25.8305 75.3013V4.43396C25.8305 3.76182 26.376 3.21631 27.0481 3.21631H59.3143C63.8066 3.21631 67.4596 6.87089 67.4596 11.3616V49.1705C67.4596 49.8426 66.9141 50.3881 66.2419 50.3881C65.5698 50.3881 65.0243 49.8426 65.0243 49.1705V11.3616C65.0243 8.21193 62.4623 5.65161 59.3143 5.65161H28.2658V75.3013C28.2658 75.9735 27.7203 76.519 27.0481 76.519Z" fill="white"/>
<path d="M66.2419 21.4876C65.5698 21.4876 65.0243 20.9421 65.0243 20.2699C65.0243 17.1203 62.4623 14.56 59.3143 14.56H34.57C33.8978 14.56 33.3523 14.0144 33.3523 13.3423C33.3523 12.6702 33.8978 12.1247 34.57 12.1247H59.3143C63.8066 12.1247 67.4596 15.7792 67.4596 20.2699C67.4596 20.9421 66.9141 21.4876 66.2419 21.4876Z" fill="white"/>
<path d="M66.2419 31.5844C65.5698 31.5844 65.0243 31.0388 65.0243 30.3667C65.0243 27.217 62.4623 24.6567 59.3143 24.6567H34.57C33.8978 24.6567 33.3523 24.1112 33.3523 23.4391C33.3523 22.7669 33.8978 22.2214 34.57 22.2214H59.3143C63.8066 22.2214 67.4596 25.876 67.4596 30.3667C67.4596 31.0388 66.9141 31.5844 66.2419 31.5844Z" fill="white"/>
<path d="M66.2419 41.6795C65.5698 41.6795 65.0243 41.134 65.0243 40.4619C65.0243 37.3122 62.4623 34.7519 59.3143 34.7519H34.57C33.8978 34.7519 33.3523 34.2064 33.3523 33.5342C33.3523 32.8621 33.8978 32.3166 34.57 32.3166H59.3143C63.8066 32.3166 67.4596 35.9712 67.4596 40.4619C67.4596 41.134 66.9141 41.6795 66.2419 41.6795Z" fill="white"/>
<path d="M66.2419 51.7747C65.5698 51.7747 65.0243 51.2291 65.0243 50.557C65.0243 47.4073 62.4623 44.847 59.3143 44.847H34.57C33.8978 44.847 33.3523 44.3015 33.3523 43.6294C33.3523 42.9572 33.8978 42.4117 34.57 42.4117H59.3143C63.8066 42.4117 67.4596 46.0663 67.4596 50.557C67.4596 51.2291 66.9141 51.7747 66.2419 51.7747Z" fill="white"/>
<path d="M63.5322 56.3741C63.2741 56.3741 63.0127 56.2913 62.7903 56.1225C61.7869 55.3513 60.5839 54.9422 59.3143 54.9422H34.57C33.8978 54.9422 33.3523 54.3967 33.3523 53.7245C33.3523 53.0524 33.8978 52.5069 34.57 52.5069H59.3143C61.1261 52.5069 62.8422 53.0897 64.2742 54.1905C64.8067 54.5996 64.9074 55.3643 64.4982 55.8984C64.2579 56.2102 63.8975 56.3741 63.5322 56.3741Z" fill="white"/>
<path d="M59.3143 65.0389H34.57C33.8978 65.0389 33.3523 64.4934 33.3523 63.8213C33.3523 63.1491 33.8978 62.6036 34.57 62.6036H59.3143C59.9864 62.6036 60.5319 63.1491 60.5319 63.8213C60.5319 64.4934 59.9864 65.0389 59.3143 65.0389Z" fill="white"/>
<path d="M15.0956 76.3777C14.4235 76.3777 13.878 75.8322 13.878 75.1601V17.7989C13.878 17.1268 14.4235 16.5813 15.0956 16.5813H26.8484C27.5206 16.5813 28.0661 17.1268 28.0661 17.7989C28.0661 18.4711 27.5206 19.0166 26.8484 19.0166H16.3133V75.1601C16.3133 75.8322 15.7678 76.3777 15.0956 76.3777Z" fill="white"/>
<path d="M18.8135 18.8364C18.1414 18.8364 17.5959 18.2908 17.5959 17.6187V10.1845C17.5959 9.51238 18.1414 8.96687 18.8135 8.96687H26.7997C27.4719 8.96687 28.0174 9.51238 28.0174 10.1845C28.0174 10.8567 27.4719 11.4022 26.7997 11.4022H20.0312V17.6171C20.0312 18.2892 19.4857 18.8347 18.8135 18.8347V18.8364Z" fill="white"/>
<path d="M22.3853 76.519C21.7132 76.519 21.1677 75.9735 21.1677 75.3013V23.5008C21.1677 22.8286 21.7132 22.2831 22.3853 22.2831C23.0575 22.2831 23.603 22.8286 23.603 23.5008V75.3013C23.603 75.9735 23.0575 76.519 22.3853 76.519Z" fill="white"/>
</svg>
